<?xml version="1.0" encoding="UTF-8"?>
<svg version="1.1" xmlns="http://www.w3.org/2000/svg" width="123" height="140">
<path d="M0 0 C0.99 0 1.98 0 3 0 C3.99 1.485 3.99 1.485 5 3 C5.99 3 6.98 3 8 3 C8 8.61 8 14.22 8 20 C9.98 20 11.96 20 14 20 C14.99 20.99 14.99 20.99 16 22 C18.77260299 23.93798263 18.77260299 23.93798263 21 25 C23 26 23 26 26 28 C26.22137393 30.62697064 26.28162025 33.00893964 26.1875 35.625 C26.16719727 36.68460938 26.16719727 36.68460938 26.14648438 37.765625 C26.1111104 39.51074128 26.05730221 41.25546608 26 43 C30.60628181 41.47935676 35.08290906 39.79489137 39.5625 37.9375 C42 37 42 37 46 36 C45.67 43.26 45.34 50.52 45 58 C46.65 58 48.3 58 50 58 C50 58.66 50 59.32 50 60 C52.31 60.66 54.62 61.32 57 62 C57.33 72.23 57.66 82.46 58 93 C59.65 93.33 61.3 93.66 63 94 C63 94.66 63 95.32 63 96 C22.41 96 -18.18 96 -60 96 C-59.67 95.01 -59.34 94.02 -59 93 C-57.68 93 -56.36 93 -55 93 C-54.67 82.77 -54.34 72.54 -54 62 C-51.525 61.505 -51.525 61.505 -49 61 C-49 60.34 -49 59.68 -49 59 C-45.535 58.505 -45.535 58.505 -42 58 C-42.33 50.74 -42.66 43.48 -43 36 C-41.02 36.66 -39.04 37.32 -37 38 C-35.783125 38.33 -34.56625 38.66 -33.3125 39 C-30 40 -30 40 -27 42 C-25.68 42.33 -24.36 42.66 -23 43 C-23 37.72 -23 32.44 -23 27 C-21.35 26.67 -19.7 26.34 -18 26 C-18 25.34 -18 24.68 -18 24 C-15.69 23.34 -13.38 22.68 -11 22 C-11 21.34 -11 20.68 -11 20 C-9.02 20 -7.04 20 -5 20 C-4.96261719 18.94039062 -4.92523438 17.88078125 -4.88671875 16.7890625 C-4.82106742 15.40100576 -4.75461979 14.01298651 -4.6875 12.625 C-4.66494141 11.92632812 -4.64238281 11.22765625 -4.61914062 10.5078125 C-4.51171875 8.4765625 -4.51171875 8.4765625 -4 5 C-3.01 4.34 -2.02 3.68 -1 3 C-0.67 2.01 -0.34 1.02 0 0 Z M-10 25 C-10.928125 25.9590625 -10.928125 25.9590625 -11.875 26.9375 C-14.06725189 29.06527389 -15.08082728 29.49669436 -18 30 C-19.44388571 31.21428988 -19.44388571 31.21428988 -19.09765625 34.81640625 C-19.09098089 36.39846682 -19.07901875 37.98051159 -19.0625 39.5625 C-19.05798828 40.36880859 -19.05347656 41.17511719 -19.04882812 42.00585938 C-19.03700518 44.00393756 -19.01906914 46.00197783 -19 48 C-19.66 48 -20.32 48 -21 48 C-21 60.54 -21 73.08 -21 86 C-20.67 86 -20.34 86 -20 86 C-19.67 74.12 -19.34 62.24 -19 50 C-16.99496491 52.00503509 -17.74411337 56.00025444 -17.68359375 58.75390625 C-17.66281265 59.52935287 -17.64203156 60.3047995 -17.62062073 61.10374451 C-17.55504198 63.58990308 -17.49620201 66.07617045 -17.4375 68.5625 C-17.39432267 70.24415204 -17.35070864 71.92579294 -17.30664062 73.60742188 C-17.19935221 77.73816871 -17.09810868 81.86902536 -17 86 C-16.67 86 -16.34 86 -16 86 C-15.97532391 80.48242521 -15.95715144 74.96488239 -15.94506836 69.44726562 C-15.94003237 67.56933025 -15.93320329 65.6913988 -15.92456055 63.81347656 C-15.91246287 61.11782868 -15.90676443 58.42223253 -15.90234375 55.7265625 C-15.89718246 54.88380768 -15.89202118 54.04105286 -15.88670349 53.17276001 C-15.76632961 48.95268639 -15.76632961 48.95268639 -17 45 C-16.01 45.33 -15.02 45.66 -14 46 C-13.67 59.2 -13.34 72.4 -13 86 C-12.67 86 -12.34 86 -12 86 C-11.97470175 79.62793828 -11.95715504 73.25588946 -11.94506836 66.88378906 C-11.94003109 64.71483883 -11.93320109 62.545892 -11.92456055 60.37695312 C-11.91246849 57.26431437 -11.90676572 54.1517204 -11.90234375 51.0390625 C-11.89718246 50.065065 -11.89202118 49.0910675 -11.88670349 48.08755493 C-11.88662796 47.18677216 -11.88655243 46.28598938 -11.88647461 45.35791016 C-11.884254 44.56293121 -11.88203339 43.76795227 -11.87974548 42.94888306 C-11.87741475 40.91910433 -11.87741475 40.91910433 -13 39 C-12.01 39.33 -11.02 39.66 -10 40 C-9.67 55.18 -9.34 70.36 -9 86 C-8.67 86 -8.34 86 -8 86 C-8 65.87 -8 45.74 -8 25 C-8.66 25 -9.32 25 -10 25 Z M11 25 C11 45.13 11 65.26 11 86 C11.33 86 11.66 86 12 86 C12.33 70.82 12.66 55.64 13 40 C13.99 39.67 14.98 39.34 16 39 C15.67 39.66 15.34 40.32 15 41 C14.91050583 42.45037107 14.8824156 43.90478629 14.88647461 45.35791016 C14.88655014 46.25869293 14.88662567 47.15947571 14.88670349 48.08755493 C14.89186478 49.06155243 14.89702606 50.03554993 14.90234375 51.0390625 C14.9037587 52.03505463 14.90517365 53.03104675 14.90663147 54.05722046 C14.91224064 57.24651053 14.9247947 60.43573106 14.9375 63.625 C14.94251382 65.78385315 14.94707693 67.94270741 14.95117188 70.1015625 C14.96221305 75.4010655 14.97896012 80.70052778 15 86 C15.33 86 15.66 86 16 86 C16 72.47 16 58.94 16 45 C16.66 45.33 17.32 45.66 18 46 C18.33 59.2 18.66 72.4 19 86 C19.33 86 19.66 86 20 86 C20 74.45 20 62.9 20 51 C20.99 51.33 21.98 51.66 23 52 C23.33 50.68 23.66 49.36 24 48 C23.34 48 22.68 48 22 48 C22 42.06 22 36.12 22 30 C20.68 29.34 19.36 28.68 18 28 C17.13375 27.46375 16.2675 26.9275 15.375 26.375 C13.16890995 24.83298791 13.16890995 24.83298791 11 25 Z M-38 44 C-38 45.65 -38 47.3 -38 49 C-34.12479873 51.01486569 -34.12479873 51.01486569 -30 52 C-30 65.86 -30 79.72 -30 94 C-28.02 93.505 -28.02 93.505 -26 93 C-25.67 78.48 -25.34 63.96 -25 49 C-28.64917679 46.9561471 -28.64917679 46.9561471 -31.5 46.5 C-33.97517916 46.00496417 -35.80504887 45.21941729 -38 44 Z M38.25 44.875 C34.92405754 46.53797123 31.52546924 47.82484359 28 49 C28 63.85 28 78.7 28 94 C29.65 94 31.3 94 33 94 C33 80.14 33 66.28 33 52 C35.31 51.34 37.62 50.68 40 50 C41.29633621 48.93354885 41.29633621 48.93354885 41.0625 46.4375 C41.041875 45.633125 41.02125 44.82875 41 44 C39.82297795 43.9254644 39.82297795 43.9254644 38.25 44.875 Z M23 52 C23 63.22 23 74.44 23 86 C23.33 86 23.66 86 24 86 C24 74.78 24 63.56 24 52 C23.67 52 23.34 52 23 52 Z M45 60 C45 71.22 45 82.44 45 94 C46.65 94 48.3 94 50 94 C50.09907258 89.80084693 50.17156173 85.60231748 50.21972656 81.40234375 C50.23980982 79.97448879 50.26708252 78.54671575 50.30175781 77.11914062 C50.35042669 75.06359632 50.37299967 73.00914145 50.390625 70.953125 C50.41157227 69.71723633 50.43251953 68.48134766 50.45410156 67.20800781 C49.92122477 63.44349114 48.97190995 62.28268886 46 60 C45.67 60 45.34 60 45 60 Z M-45.03808594 61.57910156 C-47.6368254 64.78580895 -47.46237935 66.64437695 -47.390625 70.734375 C-47.37773438 72.02988281 -47.36484375 73.32539062 -47.3515625 74.66015625 C-47.31814366 76.02344824 -47.28428391 77.38672949 -47.25 78.75 C-47.22992707 80.12888064 -47.21167767 81.50778912 -47.1953125 82.88671875 C-47.14815448 86.25851744 -47.08234538 89.62890687 -47 93 C-45.35 93.33 -43.7 93.66 -42 94 C-42 82.78 -42 71.56 -42 60 C-43.29795895 59.89792149 -43.29795895 59.89792149 -45.03808594 61.57910156 Z " fill="#E3E3E3" transform="translate(60,0)"/>
<path d="M0 0 C2.31 0.33 4.62 0.66 7 1 C7 6.94 7 12.88 7 19 C9.97 13.06 12.94 7.12 16 1 C18.475 1.495 18.475 1.495 21 2 C21.12375 2.5775 21.2475 3.155 21.375 3.75 C22.01697165 6.06109795 22.91517564 7.85967085 24 10 C25.04762304 12.24723284 26.08883261 14.49746219 27.125 16.75 C27.66382813 17.92046875 28.20265625 19.0909375 28.7578125 20.296875 C29.16773438 21.18890625 29.57765625 22.0809375 30 23 C31.70840281 21.36587557 32.93453047 20.13093906 34 18 C34.66 17.34 35.32 16.68 36 16 C36.33 15.01 36.66 14.02 37 13 C37.99 12.67 38.98 12.34 40 12 C40.33 11.01 40.66 10.02 41 9 C41.99 8.34 42.98 7.68 44 7 C39.71 6.67 35.42 6.34 31 6 C30.505 3.03 30.505 3.03 30 0 C37.92 0.33 45.84 0.66 54 1 C53.34 3.31 52.68 5.62 52 8 C51.01 8.33 50.02 8.66 49 9 C48.6278958 10.32303717 48.29369827 11.65737935 48 13 C47.34 13.33 46.68 13.66 46 14 C45.67 14.99 45.34 15.98 45 17 C44.01 17.495 44.01 17.495 43 18 C46.96 18 50.92 18 55 18 C54.67 19.98 54.34 21.96 54 24 C49.95841399 24.16866108 45.91671968 24.33457563 41.875 24.5 C40.73289063 24.54769531 39.59078125 24.59539062 38.4140625 24.64453125 C37.30546875 24.68964844 36.196875 24.73476562 35.0546875 24.78125 C34.03874512 24.82314453 33.02280273 24.86503906 31.97607422 24.90820312 C28.98198857 25.00055556 25.99530376 25.01562088 23 25 C20.525 20.05 20.525 20.05 18 15 C16.00902154 17.98646769 15.05875074 20.59687262 14 24 C4.14270869 25.58919293 4.14270869 25.58919293 0 23 C-0.33 22.01 -0.66 21.02 -1 20 C-1.99 19.67 -2.98 19.34 -4 19 C-5.68762851 17.3545622 -7.3540349 15.68711423 -9 14 C-9.99 13.34 -10.98 12.68 -12 12 C-12 16.29 -12 20.58 -12 25 C-13.98 25 -15.96 25 -18 25 C-18 17.08 -18 9.16 -18 1 C-14 2 -14 2 -12 4 C-11.34 4.33 -10.68 4.66 -10 5 C-9 6 -8 7 -7 8 C-6.34 8.33 -5.68 8.66 -5 9 C-4.34 9.66 -3.68 10.32 -3 11 C-2.34 11.33 -1.68 11.66 -1 12 C-0.67 12.66 -0.34 13.32 0 14 C0 9.38 0 4.76 0 0 Z M6 22 C7 24 7 24 7 24 Z " fill="#D1D1D1" transform="translate(68,102)"/>
<path d="M0 0 C1.65 0.33 3.3 0.66 5 1 C5.33 1.99 5.66 2.98 6 4 C6.99 4.33 7.98 4.66 9 5 C9.66 5.66 10.32 6.32 11 7 C12.65 6.34 14.3 5.68 16 5 C16 4.34 16 3.68 16 3 C17.32 2.67 18.64 2.34 20 2 C20 1.34 20 0.68 20 0 C21.32 0 22.64 0 24 0 C24 7.92 24 15.84 24 24 C22.02 24 20.04 24 18 24 C17.67 20.04 17.34 16.08 17 12 C16.34 12.66 15.68 13.32 15 14 C14.34 14.66 13.68 15.32 13 16 C12.21625 15.505 11.4325 15.01 10.625 14.5 C8.21447673 12.83462035 8.21447673 12.83462035 6 13 C5.67 16.3 5.34 19.6 5 23 C3.02 23.33 1.04 23.66 -1 24 C-0.67 16.08 -0.34 8.16 0 0 Z " fill="#C2C2C2" transform="translate(25,103)"/>
<path d="M0 0 C4 1 4 1 6 3 C6.66 3.33 7.32 3.66 8 4 C9 5 10 6 11 7 C11.66 7.33 12.32 7.66 13 8 C13.66 8.66 14.32 9.32 15 10 C15.66 10.33 16.32 10.66 17 11 C17.33 11.66 17.66 12.32 18 13 C18.33 9.04 18.66 5.08 19 1 C20.32 1 21.64 1 23 1 C23 8.26 23 15.52 23 23 C21.35 22.67 19.7 22.34 18 22 C17.67 21.01 17.34 20.02 17 19 C16.01 18.67 15.02 18.34 14 18 C12.31237149 16.3545622 10.6459651 14.68711423 9 13 C8.01 12.34 7.02 11.68 6 11 C6 15.29 6 19.58 6 24 C4.02 24 2.04 24 0 24 C0 16.08 0 8.16 0 0 Z " fill="#DBDBDB" transform="translate(50,103)"/>
<path d="M0 0 C2.31 0.33 4.62 0.66 7 1 C7 6.94 7 12.88 7 19 C9.97 13.06 12.94 7.12 16 1 C18.475 1.495 18.475 1.495 21 2 C21.12375 2.5775 21.2475 3.155 21.375 3.75 C22.01600391 6.05761408 22.92288282 7.86047032 24 10 C24.46277344 11.04414062 24.92554687 12.08828125 25.40234375 13.1640625 C25.90894531 14.30617188 26.41554688 15.44828125 26.9375 16.625 C27.44152344 17.77226563 27.94554688 18.91953125 28.46484375 20.1015625 C29.82642598 23.22781274 29.82642598 23.22781274 33 25 C29.7 25 26.4 25 23 25 C21.35 21.7 19.7 18.4 18 15 C16.00902154 17.98646769 15.05875074 20.59687262 14 24 C11.03 24.33 8.06 24.66 5 25 C5 17.41 5 9.82 5 2 C3.35 2 1.7 2 0 2 C0 1.34 0 0.68 0 0 Z M6 22 C7 24 7 24 7 24 Z " fill="#B1B1B1" transform="translate(68,102)"/>
<path d="M0 0 C1.71160615 3.42321229 0.95545825 7.29027929 0.83984375 11.0546875 C0.998576 13.97381227 1.48562677 15.54137053 3 18 C6.41656024 18.16677282 6.41656024 18.16677282 10 18 C12.84614024 15.15385976 12.45579076 12.19630858 12.625 8.375 C12.66367187 7.66859375 12.70234375 6.9621875 12.7421875 6.234375 C12.83647724 4.49001476 12.91932891 2.74504309 13 1 C14.98 0.67 16.96 0.34 19 0 C19.05379226 2.95857409 19.09357093 5.91617721 19.125 8.875 C19.14175781 9.71675781 19.15851562 10.55851562 19.17578125 11.42578125 C19.18222656 12.23144531 19.18867188 13.03710938 19.1953125 13.8671875 C19.20578613 14.61081543 19.21625977 15.35444336 19.22705078 16.12060547 C19 18 19 18 17 20 C16.525625 20.515625 16.05125 21.03125 15.5625 21.5625 C12.79616449 24.10752867 9.53819244 24.27917405 5.9375 24.6875 C5.05964844 24.79449219 4.18179687 24.90148437 3.27734375 25.01171875 C0.02861364 24.99500144 -0.77100915 23.22899085 -3 21 C-3.33 20.01 -3.66 19.02 -4 18 C-4.33 17.34 -4.66 16.68 -5 16 C-5.0716735 13.44842345 -5.09308442 10.92527029 -5.0625 8.375 C-5.05798828 7.66859375 -5.05347656 6.9621875 -5.04882812 6.234375 C-5.03703875 4.48954725 -5.01910324 2.744763 -5 1 C-3.35 0.67 -1.7 0.34 0 0 Z " fill="#CECECE" transform="translate(5,102)"/>
<path d="M0 0 C0.61875 0.165 1.2375 0.33 1.875 0.5 C4.16786836 1.23577017 4.16786836 1.23577017 7 0 C8.66614608 -0.04165365 10.33385392 -0.04165365 12 0 C12.99 0 13.98 0 15 0 C31 0 31 0 33 1 C32.67 2.32 32.34 3.64 32 5 C32.66 5 33.32 5 34 5 C34 3.35 34 1.7 34 0 C37.3125 -0.3125 37.3125 -0.3125 41 0 C42.9375 2.5 42.9375 2.5 44 5 C44.99 3.35 45.98 1.7 47 0 C47.66 0.33 48.32 0.66 49 1 C49 1.66 49 2.32 49 3 C49.66 3.33 50.32 3.66 51 4 C51 4.66 51 5.32 51 6 C51.66 6.66 52.32 7.32 53 8 C50.89611431 8.05402274 48.79183286 8.09280256 46.6875 8.125 C44.92986328 8.15980469 44.92986328 8.15980469 43.13671875 8.1953125 C40 8 40 8 37 6 C35.845 6.33 34.69 6.66 33.5 7 C32.345 7.33 31.19 7.66 30 8 C29.01 7.34 28.02 6.68 27 6 C24.94603274 6.40929986 24.94603274 6.40929986 23 7 C22.34 6.67 21.68 6.34 21 6 C20.67 6.66 20.34 7.32 20 8 C18.68 8 17.36 8 16 8 C16 7.34 16 6.68 16 6 C15.29875 6.33 14.5975 6.66 13.875 7 C9.84318715 8.40236969 6.60102951 8.67411769 2.625 7 C1.820625 6.505 1.820625 6.505 1 6 C0.67 6.66 0.34 7.32 0 8 C-1 7 -1 7 -1.125 4 C-1 1 -1 1 0 0 Z M18 1 C18.33 2.32 18.66 3.64 19 5 C19.33 4.01 19.66 3.02 20 2 C19.34 1.67 18.68 1.34 18 1 Z M36 1 C37 3 37 3 37 3 Z M26 2 C26 2.66 26 3.32 26 4 C26.66 4 27.32 4 28 4 C28 3.34 28 2.68 28 2 C27.34 2 26.68 2 26 2 Z M38 3 C39 5 39 5 39 5 Z M29 4 C30 6 30 6 30 6 Z " fill="#777777" transform="translate(21,132)"/>
<path d="M0 0 C2.9375 0.375 2.9375 0.375 6 1 C6.33 1.66 6.66 2.32 7 3 C7.66 3.33 8.32 3.66 9 4 C9.66 4.66 10.32 5.32 11 6 C11.99 6.33 12.98 6.66 14 7 C14.309375 7.639375 14.61875 8.27875 14.9375 8.9375 C15.82700866 11.17091015 15.82700866 11.17091015 18.0625 12 C20 13 20 13 20.75 15.125 C20.87375 16.053125 20.87375 16.053125 21 17 C21.66 17 22.32 17 23 17 C23.66666667 19 24.33333333 21 25 23 C25.9873454 24.67419438 26.98812105 26.34051852 28 28 C29.43336296 30.62783208 30.50559453 33.03356717 31 36 C30.67 36.66 30.34 37.32 30 38 C30.66 38.33 31.32 38.66 32 39 C32 45.6 32 52.2 32 59 C31.34 59 30.68 59 30 59 C29.9498877 58.3387915 29.89977539 57.67758301 29.84814453 56.99633789 C29.61688822 54.01753638 29.37114392 51.04010665 29.125 48.0625 C29.04636719 47.02158203 28.96773437 45.98066406 28.88671875 44.90820312 C28.76103516 43.42416992 28.76103516 43.42416992 28.6328125 41.91015625 C28.55949707 40.99371338 28.48618164 40.07727051 28.41064453 39.13305664 C28.20737549 38.0771936 28.20737549 38.0771936 28 37 C27.34 36.67 26.68 36.34 26 36 C26.33 35.34 26.66 34.68 27 34 C26.34 34 25.68 34 25 34 C24.690625 33.05125 24.38125 32.1025 24.0625 31.125 C23.12605258 28.13919592 23.12605258 28.13919592 22 26 C21.690625 25.319375 21.38125 24.63875 21.0625 23.9375 C20.15020819 21.83793327 20.15020819 21.83793327 18 21 C17.67 20.01 17.34 19.02 17 18 C16.34 17.67 15.68 17.34 15 17 C14.86335938 16.38511719 14.72671875 15.77023437 14.5859375 15.13671875 C13.84776715 12.44485755 12.76285579 11.56698503 10.625 9.8125 C10.01914063 9.30332031 9.41328125 8.79414063 8.7890625 8.26953125 C6.91703498 6.81061344 6.91703498 6.81061344 4 6 C3.67 5.34 3.34 4.68 3 4 C2.34 3.67 1.68 3.34 1 3 C0.67 2.01 0.34 1.02 0 0 Z " fill="#9B9B9B" transform="translate(86,0)"/>
<path d="M0 0 C1.32 0 2.64 0 4 0 C3.8125 1.875 3.8125 1.875 3 4 C1.34795544 4.70211894 -0.31923769 5.36971413 -2 6 C-2.33 6.99 -2.66 7.98 -3 9 C-3.66 9 -4.32 9 -5 9 C-5.2475 9.598125 -5.495 10.19625 -5.75 10.8125 C-7.17580922 13.30766613 -8.72367744 14.29275808 -11 16 C-11.69748583 17.31747324 -12.36959957 18.64914193 -13 20 C-13.66 20.33 -14.32 20.66 -15 21 C-15.33 21.66 -15.66 22.32 -16 23 C-16.495 23.5775 -16.99 24.155 -17.5 24.75 C-19.31703616 27.47555424 -19.50191825 29.79804589 -20 33 C-20.99 33.495 -20.99 33.495 -22 34 C-22 35.32 -22 36.64 -22 38 C-22.66 38 -23.32 38 -24 38 C-23.67 38.99 -23.34 39.98 -23 41 C-23.495 41.495 -23.495 41.495 -24 42 C-24.23689787 44.28708805 -24.41469037 46.58043148 -24.5625 48.875 C-24.64628906 50.13054688 -24.73007812 51.38609375 -24.81640625 52.6796875 C-24.93276967 54.78413234 -25 56.89234051 -25 59 C-25.66 59 -26.32 59 -27 59 C-28.25433458 55.23699626 -28.10695422 51.72789091 -28.0625 47.8125 C-28.05798828 47.06291016 -28.05347656 46.31332031 -28.04882812 45.54101562 C-28.03706354 43.69397617 -28.01912865 41.84697787 -28 40 C-27.34 40 -26.68 40 -26 40 C-26.33 38.35 -26.66 36.7 -27 35 C-26.34 35 -25.68 35 -25 35 C-25.20625 34.401875 -25.4125 33.80375 -25.625 33.1875 C-26 31 -26 31 -24 28 C-23.67 27.34 -23.34 26.68 -23 26 C-22 24 -22 24 -20 21 C-19.67 20.34 -19.34 19.68 -19 19 C-17.25013703 16.37520554 -16.00876516 15.05074915 -13.625 13.125 C-11.35627244 11.23674228 -9.67001368 9.58516005 -7.8125 7.25 C-5.94501833 4.93174689 -4.63610777 4.23018362 -2 3 C-1.34 2.01 -0.68 1.02 0 0 Z " fill="#939393" transform="translate(33,0)"/>
<path d="M0 0 C1.98 0 3.96 0 6 0 C6 10.56 6 21.12 6 32 C5.67 32 5.34 32 5 32 C4.67 43.22 4.34 54.44 4 66 C3.67 66 3.34 66 3 66 C3 45.87 3 25.74 3 5 C2.34 5.66 1.68 6.32 1 7 C-1.85211664 9.37676387 -3.24467703 10.06116926 -7 11 C-7.33 13.97 -7.66 16.94 -8 20 C-8.33 20 -8.66 20 -9 20 C-9.04898438 19.39671875 -9.09796875 18.7934375 -9.1484375 18.171875 C-9.22320312 17.37265625 -9.29796875 16.5734375 -9.375 15.75 C-9.44460937 14.96109375 -9.51421875 14.1721875 -9.5859375 13.359375 C-10.01507113 10.914123 -10.78600638 9.15163097 -12 7 C-10.35 6.67 -8.7 6.34 -7 6 C-7 5.34 -7 4.68 -7 4 C-4.69 3.34 -2.38 2.68 0 2 C0 1.34 0 0.68 0 0 Z " fill="#C1C1C1" transform="translate(49,20)"/>
<path d="M0 0 C2.76238316 0.09188184 5.49491141 0.23940685 8.25 0.4375 C9.77594987 0.54171749 11.30199055 0.64461503 12.828125 0.74609375 C13.54935547 0.79491699 14.27058594 0.84374023 15.01367188 0.89404297 C16.66842749 0.98231287 18.32733631 0.98783854 19.984375 0.97265625 C22 1 22 1 23 2 C23.04080783 3.99958364 23.04254356 6.00045254 23 8 C19.67032582 8.83241855 17.24733335 9.2757381 14 8 C13.67 7.34 13.34 6.68 13 6 C12.67 6.99 12.34 7.98 12 9 C11.34 9 10.68 9 10 9 C10 8.34 10 7.68 10 7 C9.3709375 7.16757813 8.741875 7.33515625 8.09375 7.5078125 C1.95979429 8.96739835 -2.01397476 8.99534175 -8 7 C-7.67 5.02 -7.34 3.04 -7 1 C-5.5459375 1.0309375 -5.5459375 1.0309375 -4.0625 1.0625 C-1.12534105 1.35618499 -1.12534105 1.35618499 0 0 Z M7 2 C6.67 2.99 6.34 3.98 6 5 C6.66 5 7.32 5 8 5 C8.33 4.01 8.66 3.02 9 2 C8.34 2 7.68 2 7 2 Z M-5 3 C-5 3.99 -5 4.98 -5 6 C-4.01 5.67 -3.02 5.34 -2 5 C-2.33 4.34 -2.66 3.68 -3 3 C-3.66 3 -4.32 3 -5 3 Z M2 3 C2.66 3.66 3.32 4.32 4 5 C4.33 4.34 4.66 3.68 5 3 C4.01 3 3.02 3 2 3 Z M19 5 C19.33 5.99 19.66 6.98 20 8 C20 7.01 20 6.02 20 5 C19.67 5 19.34 5 19 5 Z M-1 6 C0 8 0 8 0 8 Z " fill="#A8A8A8" transform="translate(80,131)"/>
<path d="M0 0 C1.32 0 2.64 0 4 0 C4 0.66 4 1.32 4 2 C12.58 2 21.16 2 30 2 C30 1.34 30 0.68 30 0 C31.485 0.495 31.485 0.495 33 1 C34.77882165 1.08808051 36.5608006 1.11763926 38.34179688 1.11352539 C39.97864441 1.11341209 39.97864441 1.11341209 41.64855957 1.11329651 C42.82672241 1.10813522 44.00488525 1.10297394 45.21875 1.09765625 C46.42817261 1.0962413 47.63759521 1.09482635 48.88366699 1.09336853 C52.75580296 1.08776348 56.62788148 1.07521671 60.5 1.0625 C63.11067624 1.05748507 65.7213534 1.05292215 68.33203125 1.04882812 C74.0785078 1.03898065 79.82495467 1.02475829 85.57141113 1.00672913 C89.80676322 0.99499383 93.96178125 1.1898555 98.1875 1.5 C100.09595703 1.63921875 100.09595703 1.63921875 102.04296875 1.78125 C103.01878906 1.8534375 103.99460937 1.925625 105 2 C105 1.34 105 0.68 105 0 C105.99 0 106.98 0 108 0 C108 0.66 108 1.32 108 2 C110.97 2 113.94 2 117 2 C117 1.34 117 0.68 117 0 C118.65 0.33 120.3 0.66 122 1 C122 1.66 122 2.32 122 3 C81.41 3 40.82 3 -1 3 C-0.67 2.01 -0.34 1.02 0 0 Z " fill="#D5D5D5" transform="translate(1,93)"/>
<path d="M0 0 C0.66 0.33 1.32 0.66 2 1 C1.67 2.32 1.34 3.64 1 5 C1.66 5 2.32 5 3 5 C3 3.35 3 1.7 3 0 C6.3125 -0.3125 6.3125 -0.3125 10 0 C11.9375 2.5 11.9375 2.5 13 5 C13.99 3.35 14.98 1.7 16 0 C16.66 0.33 17.32 0.66 18 1 C18 1.66 18 2.32 18 3 C18.66 3.33 19.32 3.66 20 4 C20 4.66 20 5.32 20 6 C20.66 6.66 21.32 7.32 22 8 C19.89611431 8.05402274 17.79183286 8.09280256 15.6875 8.125 C13.92986328 8.15980469 13.92986328 8.15980469 12.13671875 8.1953125 C9 8 9 8 6 6 C4.845 6.33 3.69 6.66 2.5 7 C1.345 7.33 0.19 7.66 -1 8 C-1.99 7.34 -2.98 6.68 -4 6 C-4.99 6.495 -4.99 6.495 -6 7 C-6 5.02 -6 3.04 -6 1 C-4.7934375 1.0309375 -4.7934375 1.0309375 -3.5625 1.0625 C-1.06645115 1.29633621 -1.06645115 1.29633621 0 0 Z M5 1 C6 3 6 3 6 3 Z M-5 2 C-5 2.66 -5 3.32 -5 4 C-4.34 4 -3.68 4 -3 4 C-3 3.34 -3 2.68 -3 2 C-3.66 2 -4.32 2 -5 2 Z M7 3 C8 5 8 5 8 5 Z M-2 4 C-1 6 -1 6 -1 6 Z " fill="#A9A9A9" transform="translate(52,132)"/>
<path d="M0 0 C1.98 0 3.96 0 6 0 C6.66 0.66 7.32 1.32 8 2 C10.77260299 3.93798263 10.77260299 3.93798263 13 5 C15 6 15 6 18 8 C18.0562279 10.96528179 17.95683804 13.68850026 17.6875 16.625 C17.5956543 17.82769531 17.5956543 17.82769531 17.50195312 19.0546875 C17.34851492 21.03758124 17.17604307 23.01898519 17 25 C16.67 25 16.34 25 16 25 C16 20.71 16 16.42 16 12 C15.34 12 14.68 12 14 12 C14 11.34 14 10.68 14 10 C12.35 10 10.7 10 9 10 C9 9.34 9 8.68 9 8 C6.69 7.01 4.38 6.02 2 5 C1.67 13.91 1.34 22.82 1 32 C0.67 32 0.34 32 0 32 C0 21.44 0 10.88 0 0 Z " fill="#A7A7A7" transform="translate(68,20)"/>
<path d="M0 0 C1.40783184 2.62795276 2.50772334 5.04634002 3 8 C2.67 8.66 2.34 9.32 2 10 C2.66 10.33 3.32 10.66 4 11 C4 17.6 4 24.2 4 31 C3.34 31 2.68 31 2 31 C1.92483154 30.00818726 1.92483154 30.00818726 1.84814453 28.99633789 C1.61688822 26.01753638 1.37114392 23.04010665 1.125 20.0625 C1.04636719 19.02158203 0.96773438 17.98066406 0.88671875 16.90820312 C0.80292969 15.91884766 0.71914062 14.92949219 0.6328125 13.91015625 C0.55949707 12.99371338 0.48618164 12.07727051 0.41064453 11.13305664 C0.27513184 10.42914795 0.13961914 9.72523926 0 9 C-0.66 8.67 -1.32 8.34 -2 8 C-1.67 7.34 -1.34 6.68 -1 6 C-1.66 6 -2.32 6 -3 6 C-3.33 4.68 -3.66 3.36 -4 2 C-2.68 1.34 -1.36 0.68 0 0 Z " fill="#A0A0A0" transform="translate(114,28)"/>
<path d="M0 0 C1.32 0 2.64 0 4 0 C3.8125 1.875 3.8125 1.875 3 4 C1.34795544 4.70211894 -0.31923769 5.36971413 -2 6 C-2.33 6.99 -2.66 7.98 -3 9 C-3.66 9 -4.32 9 -5 9 C-5.2475 9.598125 -5.495 10.19625 -5.75 10.8125 C-7.77576002 14.35758004 -10.17994156 15.72664719 -14 17 C-14 14 -14 14 -12.25 12.02734375 C-11.5075 11.33769531 -10.765 10.64804688 -10 9.9375 C-8.63152519 8.66168234 -7.28944398 7.35564311 -6 6 C-6 5.34 -6 4.68 -6 4 C-5.38125 3.896875 -4.7625 3.79375 -4.125 3.6875 C-1.63473516 3.12474627 -1.63473516 3.12474627 0 0 Z " fill="#A3A3A3" transform="translate(33,0)"/>
<path d="M0 0 C0.90105469 0.02707031 1.80210938 0.05414063 2.73046875 0.08203125 C3.76107422 0.13423828 3.76107422 0.13423828 4.8125 0.1875 C3.8225 0.5175 2.8325 0.8475 1.8125 1.1875 C1.8125 3.1675 1.8125 5.1475 1.8125 7.1875 C0.4925 6.8575 -0.8275 6.5275 -2.1875 6.1875 C-2.5175 6.8475 -2.8475 7.5075 -3.1875 8.1875 C-4.5075 8.1875 -5.8275 8.1875 -7.1875 8.1875 C-7.1875 7.5275 -7.1875 6.8675 -7.1875 6.1875 C-8.5075 6.5175 -9.8275 6.8475 -11.1875 7.1875 C-11.1875 6.1975 -11.1875 5.2075 -11.1875 4.1875 C-10.1975 3.8575 -9.2075 3.5275 -8.1875 3.1875 C-7.73761719 2.67574219 -7.28773437 2.16398438 -6.82421875 1.63671875 C-4.53825792 -0.3873659 -2.99860341 -0.1168287 0 0 Z M-5.1875 1.1875 C-4.8575 2.5075 -4.5275 3.8275 -4.1875 5.1875 C-3.8575 4.1975 -3.5275 3.2075 -3.1875 2.1875 C-3.8475 1.8575 -4.5075 1.5275 -5.1875 1.1875 Z " fill="#909090" transform="translate(44.1875,131.8125)"/>
<path d="M0 0 C2.00720923 0.28674418 4.0085944 0.61866701 6 1 C4.68 1.33 3.36 1.66 2 2 C2.33 2.99 2.66 3.98 3 5 C2.34 6.32 1.68 7.64 1 9 C-3.455 8.01 -3.455 8.01 -8 7 C-7.67 5.02 -7.34 3.04 -7 1 C-5.5459375 1.0309375 -5.5459375 1.0309375 -4.0625 1.0625 C-1.12534105 1.35618499 -1.12534105 1.35618499 0 0 Z M-5 3 C-5 3.99 -5 4.98 -5 6 C-4.01 5.67 -3.02 5.34 -2 5 C-2.33 4.34 -2.66 3.68 -3 3 C-3.66 3 -4.32 3 -5 3 Z M-1 6 C0 8 0 8 0 8 Z " fill="#808080" transform="translate(80,131)"/>
<path d="M0 0 C1.32 0 2.64 0 4 0 C3.67657623 0.5692218 3.35315247 1.1384436 3.01992798 1.72491455 C1.9300273 4.15608345 1.72784848 5.75525285 1.68115234 8.40136719 C1.66128265 9.2619574 1.64141296 10.12254761 1.62094116 11.00921631 C1.60938995 11.92914368 1.59783875 12.84907104 1.5859375 13.796875 C1.56657135 14.74564514 1.5472052 15.69441528 1.5272522 16.67193604 C1.46754341 19.69786633 1.42110567 22.72383484 1.375 25.75 C1.33681223 27.80340187 1.29776003 29.85678786 1.2578125 31.91015625 C1.16184892 36.93997496 1.07778554 41.96986865 1 47 C0.67 47 0.34 47 0 47 C0 31.49 0 15.98 0 0 Z " fill="#6D6D6D" transform="translate(72,39)"/>
<path d="M0 0 C1.32 0.33 2.64 0.66 4 1 C4 2.98 4 4.96 4 7 C2.35 7.33 0.7 7.66 -1 8 C-1.66 6.68 -2.32 5.36 -3 4 C-2.01 2.68 -1.02 1.36 0 0 Z M0 4 C0.33 4.99 0.66 5.98 1 7 C1 6.01 1 5.02 1 4 C0.67 4 0.34 4 0 4 Z " fill="#838383" transform="translate(99,132)"/>
<path d="M0 0 C0.66 0.33 1.32 0.66 2 1 C2 1.66 2 2.32 2 3 C2.66 3.33 3.32 3.66 4 4 C4 4.66 4 5.32 4 6 C4.66 6.66 5.32 7.32 6 8 C-2.57142857 8.28571429 -2.57142857 8.28571429 -6 6 C-5.38125 5.7525 -4.7625 5.505 -4.125 5.25 C-1.64931313 3.79371361 -1.04874998 2.62187494 0 0 Z " fill="#999999" transform="translate(68,132)"/>
<path d="M0 0 C1.32 0 2.64 0 4 0 C3.8125 1.875 3.8125 1.875 3 4 C1.34795544 4.70211894 -0.31923769 5.36971413 -2 6 C-2.33 6.99 -2.66 7.98 -3 9 C-3.66 9 -4.32 9 -5 9 C-5.33 7.35 -5.66 5.7 -6 4 C-5.38125 3.896875 -4.7625 3.79375 -4.125 3.6875 C-1.63473516 3.12474627 -1.63473516 3.12474627 0 0 Z " fill="#5C5C5C" transform="translate(33,0)"/>
<path d="M0 0 C1.67542976 0.28604898 3.34385343 0.61781233 5 1 C5 2.98 5 4.96 5 7 C3.68 6.67 2.36 6.34 1 6 C0.67 6.66 0.34 7.32 0 8 C-1 7 -1 7 -1.125 4 C-1 1 -1 1 0 0 Z " fill="#A4A4A4" transform="translate(21,132)"/>
<path d="M0 0 C0.66 0 1.32 0 2 0 C1.67 0.99 1.34 1.98 1 3 C0.85222064 4.69867188 0.75252934 6.40177489 0.68359375 8.10546875 C0.62075195 9.57983398 0.62075195 9.57983398 0.55664062 11.08398438 C0.51732422 12.10814453 0.47800781 13.13230469 0.4375 14.1875 C0.39431641 15.22326172 0.35113281 16.25902344 0.30664062 17.32617188 C0.20055634 19.8839819 0.09849854 22.44188845 0 25 C-0.33 25 -0.66 25 -1 25 C-1.02886984 21.02084841 -1.04675406 17.04172347 -1.0625 13.0625 C-1.07087891 11.92619141 -1.07925781 10.78988281 -1.08789062 9.61914062 C-1.09111328 8.53955078 -1.09433594 7.45996094 -1.09765625 6.34765625 C-1.10289307 5.34742432 -1.10812988 4.34719238 -1.11352539 3.31665039 C-1 1 -1 1 0 0 Z " fill="#DEDEDE" transform="translate(66,3)"/>
<path d="M0 0 C2.97 0.495 2.97 0.495 6 1 C5 4 5 4 3 5 C2.67 5.66 2.34 6.32 2 7 C0.68 6.34 -0.64 5.68 -2 5 C-1.67 4.34 -1.34 3.68 -1 3 C-0.67 2.01 -0.34 1.02 0 0 Z " fill="#8E8E8E" transform="translate(15,16)"/>
<path d="M0 0 C0.66 0 1.32 0 2 0 C1.46930939 3.82097239 0.50298434 6.06171403 -2 9 C-2.66 7.35 -3.32 5.7 -4 4 C-2.66666667 2.66666667 -1.33333333 1.33333333 0 0 Z " fill="#C1C0C1" transform="translate(13,22)"/>
<path d="M0 0 C2.9375 0.375 2.9375 0.375 6 1 C6.33 1.66 6.66 2.32 7 3 C7.66 3.33 8.32 3.66 9 4 C8.01 5.485 8.01 5.485 7 7 C6.01 6.67 5.02 6.34 4 6 C3.67 5.34 3.34 4.68 3 4 C2.34 3.67 1.68 3.34 1 3 C0.67 2.01 0.34 1.02 0 0 Z " fill="#5C5C5C" transform="translate(86,0)"/>
<path d="M0 0 C3.375 0.6875 3.375 0.6875 7 2 C8.4375 4.625 8.4375 4.625 9 7 C6.62051228 6.82374165 5.29774151 6.30280227 3.62109375 4.59765625 C2.37884514 3.09350908 1.18623944 1.54870149 0 0 Z " fill="#C0C0C0" transform="translate(93,5)"/>
<path d="M0 0 C1.65 0.33 3.3 0.66 5 1 C5 1.66 5 2.32 5 3 C0.71 3 -3.58 3 -8 3 C-8 2.67 -8 2.34 -8 2 C-5.36 2 -2.72 2 0 2 C0 1.34 0 0.68 0 0 Z " fill="#DCDCDC" transform="translate(118,93)"/>
<path d="M0 0 C1.32 0 2.64 0 4 0 C3.690625 0.495 3.38125 0.99 3.0625 1.5 C1.58355618 4.97986781 1.37597149 8.24028509 1 12 C0.67 12 0.34 12 0 12 C0 8.04 0 4.08 0 0 Z " fill="#787878" transform="translate(72,39)"/>
<path d="M0 0 C2.125 0.9375 2.125 0.9375 4 2 C3.34 3.32 2.68 4.64 2 6 C0.68 5.34 -0.64 4.68 -2 4 C-2 3.01 -2 2.02 -2 1 C-1.34 0.67 -0.68 0.34 0 0 Z " fill="#979797" transform="translate(13,58)"/>
<path d="M0 0 C0.66 1.32 1.32 2.64 2 4 C0.35 4.66 -1.3 5.32 -3 6 C-3.33 4.68 -3.66 3.36 -4 2 C-2.68 1.34 -1.36 0.68 0 0 Z " fill="#676767" transform="translate(114,28)"/>
<path d="M0 0 C1.32 0 2.64 0 4 0 C3.38722388 2.96175123 2.74627478 4.38058783 1 7 C1 6.01 1 5.02 1 4 C0.34 3.67 -0.32 3.34 -1 3 C-0.67 2.01 -0.34 1.02 0 0 Z " fill="#999999" transform="translate(113,33)"/>
<path d="M0 0 C1.32 0 2.64 0 4 0 C4 0.66 4 1.32 4 2 C4.99 2.33 5.98 2.66 7 3 C4.36 3 1.72 3 -1 3 C-0.67 2.01 -0.34 1.02 0 0 Z " fill="#E1E1E1" transform="translate(1,93)"/>
<path d="M0 0 C0.99 0.33 1.98 0.66 3 1 C3.33 2.65 3.66 4.3 4 6 C2.68 6 1.36 6 0 6 C0 4.02 0 2.04 0 0 Z " fill="#CFCFCF" transform="translate(109,24)"/>
<path d="M0 0 C0.66 0.33 1.32 0.66 2 1 C1.01 1.66 0.02 2.32 -1 3 C-0.67 2.01 -0.34 1.02 0 0 Z " fill="#000000" transform="translate(21,9)"/>
<path d="M0 0 C2 1 2 1 2 1 Z " fill="#010101" transform="translate(57,139)"/>
<path d="M0 0 C2 1 2 1 2 1 Z " fill="#000000" transform="translate(47,139)"/>
<path d="M0 0 C2 1 2 1 2 1 Z " fill="#000000" transform="translate(60,118)"/>
<path d="M0 0 C2 1 2 1 2 1 Z " fill="#010101" transform="translate(15,62)"/>
<path d="M0 0 C2 1 2 1 2 1 Z " fill="#000000" transform="translate(110,59)"/>
<path d="" fill="#000000" transform="translate(0,0)"/>
<path d="M0 0 C2 1 2 1 2 1 Z " fill="#010101" transform="translate(94,47)"/>
<path d="M0 0 C2 1 2 1 2 1 Z " fill="#000000" transform="translate(27,47)"/>
<path d="M0 0 C2 1 2 1 2 1 Z " fill="#010101" transform="translate(75,28)"/>
<path d="" fill="#000000" transform="translate(0,0)"/>
<path d="" fill="#000000" transform="translate(0,0)"/>
<path d="" fill="#000000" transform="translate(0,0)"/>
<path d="" fill="#000000" transform="translate(0,0)"/>
<path d="" fill="#000000" transform="translate(0,0)"/>
<path d="" fill="#020202" transform="translate(0,0)"/>
<path d="" fill="#000000" transform="translate(0,0)"/>
<path d="" fill="#000000" transform="translate(0,0)"/>
<path d="" fill="#000000" transform="translate(0,0)"/>
<path d="" fill="#010101" transform="translate(0,0)"/>
<path d="" fill="#000000" transform="translate(0,0)"/>
<path d="" fill="#010101" transform="translate(0,0)"/>
<path d="" fill="#000000" transform="translate(0,0)"/>
<path d="" fill="#020202" transform="translate(0,0)"/>
<path d="" fill="#020202" transform="translate(0,0)"/>
<path d="" fill="#000000" transform="translate(0,0)"/>
<path d="" fill="#000000" transform="translate(0,0)"/>
<path d="" fill="#010101" transform="translate(0,0)"/>
<path d="" fill="#020202" transform="translate(0,0)"/>
<path d="" fill="#050505" transform="translate(0,0)"/>
<path d="" fill="#000000" transform="translate(0,0)"/>
<path d="" fill="#020202" transform="translate(0,0)"/>
<path d="" fill="#000000" transform="translate(0,0)"/>
<path d="" fill="#020202" transform="translate(0,0)"/>
<path d="" fill="#000000" transform="translate(0,0)"/>
<path d="" fill="#000000" transform="translate(0,0)"/>
<path d="" fill="#000000" transform="translate(0,0)"/>
<path d="" fill="#020202" transform="translate(0,0)"/>
<path d="" fill="#010101" transform="translate(0,0)"/>
<path d="" fill="#000000" transform="translate(0,0)"/>
<path d="" fill="#020202" transform="translate(0,0)"/>
<path d="" fill="#020202" transform="translate(0,0)"/>
<path d="" fill="#000000" transform="translate(0,0)"/>
<path d="" fill="#030303" transform="translate(0,0)"/>
<path d="" fill="#000000" transform="translate(0,0)"/>
<path d="" fill="#010101" transform="translate(0,0)"/>
<path d="" fill="#010101" transform="translate(0,0)"/>
<path d="" fill="#000000" transform="translate(0,0)"/>
<path d="" fill="#020202" transform="translate(0,0)"/>
<path d="" fill="#020202" transform="translate(0,0)"/>
<path d="" fill="#000000" transform="translate(0,0)"/>
<path d="" fill="#000000" transform="translate(0,0)"/>
<path d="" fill="#000000" transform="translate(0,0)"/>
<path d="" fill="#000000" transform="translate(0,0)"/>
<path d="" fill="#000000" transform="translate(0,0)"/>
<path d="" fill="#000000" transform="translate(0,0)"/>
<path d="" fill="#030303" transform="translate(0,0)"/>
<path d="" fill="#000000" transform="translate(0,0)"/>
<path d="" fill="#000000" transform="translate(0,0)"/>
<path d="" fill="#000000" transform="translate(0,0)"/>
<path d="" fill="#020202" transform="translate(0,0)"/>
<path d="" fill="#000000" transform="translate(0,0)"/>
<path d="" fill="#000000" transform="translate(0,0)"/>
<path d="" fill="#030303" transform="translate(0,0)"/>
<path d="" fill="#030303" transform="translate(0,0)"/>
<path d="" fill="#000000" transform="translate(0,0)"/>
<path d="" fill="#000000" transform="translate(0,0)"/>
<path d="" fill="#000000" transform="translate(0,0)"/>
<path d="" fill="#000000" transform="translate(0,0)"/>
<path d="" fill="#000000" transform="translate(0,0)"/>
<path d="" fill="#000000" transform="translate(0,0)"/>
<path d="" fill="#000000" transform="translate(0,0)"/>
<path d="" fill="#000000" transform="translate(0,0)"/>
<path d="" fill="#010101" transform="translate(0,0)"/>
<path d="" fill="#010101" transform="translate(0,0)"/>
<path d="" fill="#010101" transform="translate(0,0)"/>
<path d="" fill="#010101" transform="translate(0,0)"/>
<path d="" fill="#000000" transform="translate(0,0)"/>
<path d="" fill="#000000" transform="translate(0,0)"/>
<path d="" fill="#010101" transform="translate(0,0)"/>
<path d="" fill="#000000" transform="translate(0,0)"/>
<path d="" fill="#010101" transform="translate(0,0)"/>
<path d="" fill="#010101" transform="translate(0,0)"/>
<path d="" fill="#000000" transform="translate(0,0)"/>
<path d="" fill="#000000" transform="translate(0,0)"/>
<path d="" fill="#010101" transform="translate(0,0)"/>
<path d="" fill="#000000" transform="translate(0,0)"/>
<path d="" fill="#000000" transform="translate(0,0)"/>
<path d="" fill="#010101" transform="translate(0,0)"/>
<path d="" fill="#000000" transform="translate(0,0)"/>
<path d="" fill="#000000" transform="translate(0,0)"/>
<path d="" fill="#020202" transform="translate(0,0)"/>
<path d="" fill="#000000" transform="translate(0,0)"/>
<path d="" fill="#000000" transform="translate(0,0)"/>
<path d="" fill="#010101" transform="translate(0,0)"/>
<path d="" fill="#020202" transform="translate(0,0)"/>
<path d="" fill="#020202" transform="translate(0,0)"/>
<path d="" fill="#000000" transform="translate(0,0)"/>
<path d="" fill="#000000" transform="translate(0,0)"/>
<path d="" fill="#000000" transform="translate(0,0)"/>
<path d="" fill="#000000" transform="translate(0,0)"/>
<path d="" fill="#010101" transform="translate(0,0)"/>
<path d="" fill="#010101" transform="translate(0,0)"/>
<path d="" fill="#010101" transform="translate(0,0)"/>
<path d="" fill="#030303" transform="translate(0,0)"/>
<path d="" fill="#000000" transform="translate(0,0)"/>
<path d="" fill="#010101" transform="translate(0,0)"/>
<path d="" fill="#020202" transform="translate(0,0)"/>
<path d="" fill="#000000" transform="translate(0,0)"/>
<path d="" fill="#000000" transform="translate(0,0)"/>
<path d="" fill="#000000" transform="translate(0,0)"/>
<path d="" fill="#000000" transform="translate(0,0)"/>
<path d="" fill="#000000" transform="translate(0,0)"/>
<path d="" fill="#000000" transform="translate(0,0)"/>
<path d="" fill="#010101" transform="translate(0,0)"/>
<path d="" fill="#000000" transform="translate(0,0)"/>
<path d="" fill="#000000" transform="translate(0,0)"/>
<path d="" fill="#010101" transform="translate(0,0)"/>
<path d="" fill="#010101" transform="translate(0,0)"/>
<path d="" fill="#020202" transform="translate(0,0)"/>
<path d="" fill="#030303" transform="translate(0,0)"/>
<path d="" fill="#020202" transform="translate(0,0)"/>
<path d="" fill="#000000" transform="translate(0,0)"/>
<path d="" fill="#000000" transform="translate(0,0)"/>
<path d="" fill="#010101" transform="translate(0,0)"/>
<path d="" fill="#000000" transform="translate(0,0)"/>
<path d="" fill="#000000" transform="translate(0,0)"/>
<path d="" fill="#000000" transform="translate(0,0)"/>
<path d="" fill="#000000" transform="translate(0,0)"/>
<path d="" fill="#000000" transform="translate(0,0)"/>
<path d="" fill="#000000" transform="translate(0,0)"/>
<path d="" fill="#000000" transform="translate(0,0)"/>
<path d="" fill="#010101" transform="translate(0,0)"/>
<path d="" fill="#000000" transform="translate(0,0)"/>
<path d="" fill="#000000" transform="translate(0,0)"/>
<path d="" fill="#020202" transform="translate(0,0)"/>
<path d="" fill="#010101" transform="translate(0,0)"/>
<path d="" fill="#000000" transform="translate(0,0)"/>
<path d="" fill="#000000" transform="translate(0,0)"/>
<path d="" fill="#000000" transform="translate(0,0)"/>
<path d="" fill="#010101" transform="translate(0,0)"/>
<path d="" fill="#010101" transform="translate(0,0)"/>
<path d="" fill="#010101" transform="translate(0,0)"/>
<path d="" fill="#010101" transform="translate(0,0)"/>
<path d="" fill="#000000" transform="translate(0,0)"/>
<path d="" fill="#000000" transform="translate(0,0)"/>
<path d="" fill="#000000" transform="translate(0,0)"/>
<path d="" fill="#000000" transform="translate(0,0)"/>
<path d="" fill="#000000" transform="translate(0,0)"/>
<path d="" fill="#000000" transform="translate(0,0)"/>
<path d="" fill="#000000" transform="translate(0,0)"/>
<path d="" fill="#000000" transform="translate(0,0)"/>
<path d="" fill="#020202" transform="translate(0,0)"/>
<path d="" fill="#020202" transform="translate(0,0)"/>
<path d="" fill="#000000" transform="translate(0,0)"/>
<path d="" fill="#000000" transform="translate(0,0)"/>
<path d="" fill="#010101" transform="translate(0,0)"/>
<path d="" fill="#000000" transform="translate(0,0)"/>
<path d="" fill="#030303" transform="translate(0,0)"/>
<path d="" fill="#000000" transform="translate(0,0)"/>
<path d="" fill="#000000" transform="translate(0,0)"/>
<path d="" fill="#000000" transform="translate(0,0)"/>
<path d="" fill="#020202" transform="translate(0,0)"/>
<path d="" fill="#000000" transform="translate(0,0)"/>
<path d="" fill="#000000" transform="translate(0,0)"/>
<path d="" fill="#000000" transform="translate(0,0)"/>
<path d="" fill="#000000" transform="translate(0,0)"/>
<path d="" fill="#000000" transform="translate(0,0)"/>
<path d="" fill="#000000" transform="translate(0,0)"/>
<path d="" fill="#010101" transform="translate(0,0)"/>
<path d="" fill="#000000" transform="translate(0,0)"/>
<path d="" fill="#020202" transform="translate(0,0)"/>
<path d="" fill="#000000" transform="translate(0,0)"/>
<path d="" fill="#010101" transform="translate(0,0)"/>
<path d="" fill="#010101" transform="translate(0,0)"/>
<path d="" fill="#000000" transform="translate(0,0)"/>
<path d="" fill="#010101" transform="translate(0,0)"/>
<path d="" fill="#010101" transform="translate(0,0)"/>
<path d="" fill="#000000" transform="translate(0,0)"/>
<path d="" fill="#000000" transform="translate(0,0)"/>
<path d="" fill="#020202" transform="translate(0,0)"/>
<path d="" fill="#000000" transform="translate(0,0)"/>
<path d="" fill="#010101" transform="translate(0,0)"/>
<path d="" fill="#000000" transform="translate(0,0)"/>
<path d="" fill="#000000" transform="translate(0,0)"/>
<path d="" fill="#000000" transform="translate(0,0)"/>
<path d="" fill="#000000" transform="translate(0,0)"/>
<path d="" fill="#000000" transform="translate(0,0)"/>
<path d="" fill="#020202" transform="translate(0,0)"/>
</svg>
